<svg xmlns="http://www.w3.org/2000/svg" viewBox="0 0 240 240" role="img" aria-label="开发者二维码占位图">
  <rect width="240" height="240" rx="24" fill="#ffffff"/>
  <rect x="18" y="18" width="204" height="204" rx="16" fill="#f8fafc" stroke="#dbe4f0" stroke-width="4"/>
  <g fill="#0f172a">
    <rect x="34" y="34" width="52" height="52" rx="8"/>
    <rect x="44" y="44" width="32" height="32" rx="4" fill="#fff"/>
    <rect x="154" y="34" width="52" height="52" rx="8"/>
    <rect x="164" y="44" width="32" height="32" rx="4" fill="#fff"/>
    <rect x="34" y="154" width="52" height="52" rx="8"/>
    <rect x="44" y="164" width="32" height="32" rx="4" fill="#fff"/>
    <rect x="108" y="36" width="12" height="12"/>
    <rect x="124" y="36" width="12" height="12"/>
    <rect x="108" y="52" width="12" height="12"/>
    <rect x="124" y="68" width="12" height="12"/>
    <rect x="100" y="100" width="20" height="20"/>
    <rect x="128" y="100" width="12" height="12"/>
    <rect x="148" y="100" width="20" height="20"/>
    <rect x="100" y="132" width="12" height="12"/>
    <rect x="120" y="132" width="20" height="20"/>
    <rect x="148" y="132" width="12" height="12"/>
    <rect x="92" y="160" width="12" height="12"/>
    <rect x="112" y="160" width="28" height="12"/>
    <rect x="148" y="160" width="12" height="12"/>
    <rect x="92" y="180" width="12" height="12"/>
    <rect x="128" y="180" width="12" height="12"/>
    <rect x="148" y="180" width="28" height="12"/>
  </g>
  <text x="120" y="224" text-anchor="middle" font-family="PingFang SC, Arial, sans-serif" font-size="14" fill="#64748b">开发者二维码占位图</text>
</svg>
